<?xml version="1.0" standalone="no"?>
<!DOCTYPE svg PUBLIC "-//W3C//DTD SVG 20010904//EN"
 "http://www.w3.org/TR/2001/REC-SVG-20010904/DTD/svg10.dtd">
<svg version="1.0" xmlns="http://www.w3.org/2000/svg"
 width="1024.000000pt" height="1024.000000pt" viewBox="0 0 1024.000000 1024.000000"
 preserveAspectRatio="xMidYMid meet">
<metadata>
Created by potrace 1.14, written by Peter Selinger 2001-2017
</metadata>
<g transform="translate(0.000000,1024.000000) scale(0.100000,-0.100000)"
fill="#000000" stroke="none">
<path d="M2487 9773 c-1 -1 -29 -3 -62 -4 -63 -3 -135 -17 -201 -40 -22 -7
-41 -13 -44 -14 -22 -3 -129 -61 -177 -96 -192 -141 -310 -321 -359 -544 -10
-49 -13 -863 -13 -4333 -1 -2349 1 -4272 3 -4272 3 0 83 46 178 101 95 56 214
125 263 154 50 29 331 193 625 365 294 172 549 320 565 330 17 9 327 190 690
402 363 212 676 395 695 406 19 11 87 50 150 87 63 38 161 95 218 128 l103 59
492 -288 c271 -158 506 -295 522 -304 17 -10 163 -95 325 -190 162 -95 309
-180 325 -190 17 -9 432 -252 923 -538 491 -287 895 -522 898 -522 2 0 4 1916
4 4257 0 3038 -3 4277 -11 4323 -37 220 -157 414 -342 553 -122 92 -203 126
-387 163 -29 6 -5378 13 -5383 7z m5192 -883 c16 -6 36 -22 44 -34 12 -18 14
-525 14 -3444 l0 -3422 -21 15 c-12 8 -28 18 -36 22 -8 3 -39 21 -68 40 -29
18 -54 33 -56 33 -2 0 -131 75 -287 166 -156 92 -367 215 -469 274 -102 59
-291 169 -420 245 -129 76 -250 146 -267 156 -18 11 -48 27 -65 38 -18 10
-139 80 -268 156 -129 76 -255 149 -280 163 -25 14 -69 40 -98 59 -29 18 -54
33 -57 33 -3 0 -54 29 -114 65 l-110 65 -183 -106 c-101 -59 -262 -153 -358
-209 -96 -56 -218 -127 -270 -157 -52 -31 -255 -149 -450 -263 -195 -114 -452
-264 -570 -333 -118 -69 -227 -132 -242 -141 -15 -9 -93 -55 -175 -102 -81
-47 -198 -115 -259 -151 l-111 -66 1 3429 c1 3131 2 3430 17 3444 9 9 32 22
50 28 52 18 5065 15 5108 -3z"/>
<path d="M4945 8553 c-208 -45 -357 -124 -496 -262 -193 -191 -291 -431 -285
-695 2 -89 5 -107 30 -151 39 -70 61 -91 129 -125 l60 -30 746 3 746 2 44 23
c57 31 103 76 132 132 21 40 24 58 24 155 0 141 -9 198 -45 307 -112 333 -391
576 -737 642 -94 18 -266 17 -348 -1z"/>
<path d="M3120 7600 c-89 -26 -171 -95 -211 -176 -20 -41 -24 -64 -23 -134 1
-138 -1 -136 396 -534 191 -192 348 -355 348 -361 0 -6 -4 -15 -9 -20 -25 -28
-86 -239 -94 -325 l-3 -35 -365 -5 c-362 -5 -364 -5 -414 -30 -64 -32 -124
-92 -155 -155 -34 -70 -34 -198 -1 -267 41 -85 118 -150 207 -176 28 -8 148
-12 383 -12 l341 0 1 -32 c4 -141 13 -207 44 -343 16 -66 77 -251 96 -286 7
-13 -66 -91 -342 -365 -193 -192 -364 -368 -380 -391 -105 -151 -61 -359 96
-455 107 -65 249 -61 345 10 19 14 178 168 353 341 175 174 320 318 322 319 2
2 34 -21 72 -51 222 -178 496 -294 786 -333 l47 -7 0 1214 c0 1163 1 1216 19
1249 57 107 195 119 269 22 l27 -35 3 -1225 2 -1224 53 6 c267 32 565 157 776
328 l73 60 342 -340 c385 -383 377 -377 521 -377 96 0 158 25 221 91 68 69 89
124 88 224 -1 139 3 134 -415 553 l-368 368 20 46 c74 174 127 413 129 585 l0
47 363 3 c358 3 363 3 410 27 62 30 103 65 133 113 81 129 66 296 -36 397 -57
56 -68 62 -132 82 -53 17 -96 19 -399 19 -186 0 -340 3 -340 8 -1 4 -3 20 -5
35 -10 91 -42 203 -86 306 -10 24 -17 45 -16 47 2 1 161 162 354 356 397 399
389 388 389 533 -1 97 -23 154 -88 218 -100 101 -249 125 -370 60 -37 -20
-150 -126 -395 -370 -188 -189 -346 -343 -350 -343 -4 0 -19 6 -33 14 -15 7
-62 25 -106 40 -160 53 -185 55 -898 55 -740 -1 -754 -2 -938 -75 -49 -20 -90
-34 -92 -32 -3 1 -161 159 -352 349 -387 384 -394 390 -518 394 -38 2 -81 0
-95 -5z"/>
</g>
</svg>
